<svg xmlns="http://www.w3.org/2000/svg" width="160" height="150" viewBox="0 0 160 150">
  <title>graphql-upload logo</title>
  <path stroke="#e10098" stroke-width="7.029" d="M29.5 133.859l48.873-70.677-48.874 70.677z" />
  <path fill="#61dafb" d="M146.389 70.934c.61 17.46-13.076 32.105-30.565 32.716a31.59 31.59 0 0 1-18.865-5.412 43.62 43.62 0 0 1-19.41 5.293c-24.12.843-44.363-17.992-45.203-42.068-.841-24.08 18.036-44.282 42.159-45.124a43.727 43.727 0 0 1 40.627 24.076c16.812.204 30.665 13.569 31.257 30.52zM74.759 23.62c-20.105.702-35.833 17.532-35.133 37.589.7 20.051 17.566 35.744 37.67 35.041a36.318 36.318 0 0 0 17.971-5.454l2.189-1.361 2.012 1.61a24.307 24.307 0 0 0 16.1 5.324c13.471-.47 24.01-11.747 23.54-25.18-.469-13.433-11.768-23.946-25.24-23.476a27.01 27.01 0 0 0-.802.04L96.638 48.79l11.406-6.211a36.445 36.445 0 0 0-33.285-18.96z" />
  <path fill="none" stroke="#e10098" stroke-width="7.029" d="M13.985 73.861l64.382-10.666 12.541 59.169" />
  <path fill="#e10098" d="M83.11 77.803c-8.076 2.624-16.75-1.796-19.374-9.872-2.624-8.076 1.796-16.75 9.872-19.374 8.076-2.624 16.75 1.795 19.374 9.872 2.624 8.076-1.795 16.75-9.872 19.374z" />
</svg>
